<svg id="Camada_1" data-name="Camada 1" xmlns="http://www.w3.org/2000/svg" viewBox="0 0 384.55 120"><defs><style>.cls-1{fill:#5059c9;}.cls-2{fill:#5e5e5e;}</style></defs><path class="cls-1" d="M116.64,89.69V39h34.25v9.59H128.06v9.95h20.27v9.37H128.06V80.1h24.52v9.59Z"/><path class="cls-1" d="M169,89.69q-3.75-7.32-7.61-17.12T154,51.19h11.57c.49,1.9,1.06,4,1.72,6.19s1.35,4.46,2.06,6.73,1.42,4.48,2.14,6.62,1.41,4.1,2.09,5.86c.64-1.76,1.32-3.71,2.06-5.86s1.46-4.35,2.17-6.62,1.39-4.51,2.05-6.73,1.24-4.29,1.73-6.19h11.28q-3.45,11.56-7.3,21.38T178,89.69Z"/><path class="cls-1" d="M194,70.73a23.51,23.51,0,0,1,1.57-9,19.28,19.28,0,0,1,4.14-6.41,17.26,17.26,0,0,1,5.89-3.88,18.6,18.6,0,0,1,6.84-1.31q8.2,0,13,5t4.76,14.75c0,.63,0,1.33-.08,2.09s-.09,1.42-.14,2H205.21a7.25,7.25,0,0,0,3.14,5.34,12.66,12.66,0,0,0,7.47,2,31.18,31.18,0,0,0,5.89-.55,22.86,22.86,0,0,0,4.72-1.35l1.47,8.85a14.42,14.42,0,0,1-2.34.88,32.1,32.1,0,0,1-3.26.77c-1.2.22-2.48.4-3.84.55a37.68,37.68,0,0,1-4.1.22,24.13,24.13,0,0,1-9-1.54A17.47,17.47,0,0,1,199,85a16.54,16.54,0,0,1-3.73-6.33A24.93,24.93,0,0,1,194,70.73Zm25.62-4.17a11.33,11.33,0,0,0-.48-2.71,6.93,6.93,0,0,0-1.24-2.34,6.62,6.62,0,0,0-2.13-1.68,6.87,6.87,0,0,0-3.18-.66,7.4,7.4,0,0,0-3.15.62,6.53,6.53,0,0,0-2.19,1.65,7.35,7.35,0,0,0-1.36,2.38,14.86,14.86,0,0,0-.69,2.74Z"/><path class="cls-1" d="M236.76,52.51a59.11,59.11,0,0,1,7.17-1.5,58.16,58.16,0,0,1,9.22-.7,22.53,22.53,0,0,1,8.16,1.28,12.35,12.35,0,0,1,5.16,3.63,14.1,14.1,0,0,1,2.71,5.56A29.45,29.45,0,0,1,270,68V89.69H259.08V69.27q0-5.26-1.39-7.47t-5.2-2.19c-.78,0-1.61,0-2.49.11s-1.66.16-2.34.25V89.69h-10.9Z"/><path class="cls-1" d="M277.67,41.6l10.91-1.75V51.19h13.1v9.08h-13.1V73.81a10.74,10.74,0,0,0,1.21,5.49q1.2,2.06,4.86,2a20.85,20.85,0,0,0,3.63-.33,17.91,17.91,0,0,0,3.4-.92l1.54,8.5A32,32,0,0,1,298.83,90a25.66,25.66,0,0,1-5.93.58,19.48,19.48,0,0,1-7.4-1.21A11.52,11.52,0,0,1,280.82,86a12.53,12.53,0,0,1-2.45-5.24,30.49,30.49,0,0,1-.7-6.8Z"/><path class="cls-1" d="M343.26,70.37a25,25,0,0,1-1.32,8.31,18.08,18.08,0,0,1-3.81,6.44,17,17,0,0,1-6,4.13,19.86,19.86,0,0,1-7.8,1.47,19.64,19.64,0,0,1-7.72-1.47,17.06,17.06,0,0,1-6-4.13,19,19,0,0,1-3.88-6.44,24,24,0,0,1-1.39-8.31,23,23,0,0,1,1.43-8.27,18.81,18.81,0,0,1,4-6.37,17.84,17.84,0,0,1,6-4.1,19.2,19.2,0,0,1,7.57-1.46A19.46,19.46,0,0,1,332,51.63a17.39,17.39,0,0,1,6,4.1,18.66,18.66,0,0,1,3.88,6.37A23.68,23.68,0,0,1,343.26,70.37Zm-11.13,0c0-3.37-.67-6-2-7.94a6.58,6.58,0,0,0-5.75-2.89,6.67,6.67,0,0,0-5.78,2.89c-1.37,1.93-2,4.57-2,7.94a13.81,13.81,0,0,0,2,8,6.62,6.62,0,0,0,5.78,3,6.53,6.53,0,0,0,5.75-3A14,14,0,0,0,332.13,70.37Z"/><path class="cls-1" d="M360.9,81.86a10.89,10.89,0,0,0,4.24-.58A2.27,2.27,0,0,0,366.39,79a2.79,2.79,0,0,0-1.61-2.31,30.77,30.77,0,0,0-4.91-2.23,49.39,49.39,0,0,1-4.64-2A13.37,13.37,0,0,1,351.68,70a9.81,9.81,0,0,1-2.27-3.4,12.57,12.57,0,0,1-.81-4.76,10.29,10.29,0,0,1,4-8.57q4-3.14,11.05-3.14a35,35,0,0,1,6.73.62,31.77,31.77,0,0,1,5.13,1.35l-1.91,8.49a38.64,38.64,0,0,0-4.13-1.17,22.58,22.58,0,0,0-5-.51q-5.13,0-5.13,2.85a2.92,2.92,0,0,0,.22,1.18,2.47,2.47,0,0,0,.88,1,11.75,11.75,0,0,0,1.79,1c.76.37,1.72.78,2.89,1.22a45.18,45.18,0,0,1,5.93,2.62,14.08,14.08,0,0,1,3.7,2.79,8.62,8.62,0,0,1,1.9,3.32,14.64,14.64,0,0,1,.55,4.24,9.77,9.77,0,0,1-4.28,8.62c-2.86,1.94-6.89,2.92-12.12,2.92a34.56,34.56,0,0,1-8.52-.88,35,35,0,0,1-4.72-1.46l1.83-8.86a35.12,35.12,0,0,0,5.71,1.72A28.07,28.07,0,0,0,360.9,81.86Z"/><path class="cls-2" d="M381.67,100.31a.57.57,0,0,0-.16-.09.72.72,0,0,0,.43-.19.54.54,0,0,0,.05-.66.41.41,0,0,0-.22-.19,1.07,1.07,0,0,0-.41-.06h-.88v2h.26v-.89h.46a.31.31,0,0,1,.12,0,.52.52,0,0,1,.13.13,3.27,3.27,0,0,1,.19.28l.27.42h.33l-.35-.55A1.52,1.52,0,0,0,381.67,100.31Zm-.36-.3h-.57v-.67h.63a.45.45,0,0,1,.33.1.29.29,0,0,1,.1.23.31.31,0,0,1-.05.18.4.4,0,0,1-.16.12A.93.93,0,0,1,381.31,100Z"/><path class="cls-2" d="M381.23,98.19a2,2,0,1,0,2,2A2,2,0,0,0,381.23,98.19Zm0,3.69a1.65,1.65,0,1,1,1.65-1.65A1.65,1.65,0,0,1,381.23,101.88Z"/><polygon class="cls-2" points="289.53 110.52 289.53 110.52 289.53 110.53 289.53 110.52"/><polygon class="cls-2" points="250.04 109.72 250.04 109.72 250.04 109.72 250.04 109.72"/><path class="cls-2" d="M375.3,108.06a3.7,3.7,0,0,0,1.28-.61,4.37,4.37,0,0,0,.56-.49h0a3.67,3.67,0,0,0,.55-.8h0a4.25,4.25,0,0,0,.44-2h0a3.66,3.66,0,0,0-2.57-3.71,11.14,11.14,0,0,0-3.26-.24h-6.12v13.63h2.25v-5.67h4.39l2.78,5,.4.72h2.53l-.29-.5ZM373.72,106h-5.28v-3.6c1.78,0,3.57,0,5.35,0a2.24,2.24,0,0,1,1.52.47,1.83,1.83,0,0,1,.49,1.34h0a2.17,2.17,0,0,1-.13.8h0a1.44,1.44,0,0,1-.88.83A3.23,3.23,0,0,1,373.72,106Z"/><path class="cls-2" d="M276.12,106.79h0a7.41,7.41,0,0,0-3.87-1.31,14.92,14.92,0,0,1-4-.61h0a1.22,1.22,0,0,1-.86-1.08h0a1.23,1.23,0,0,1,.37-.87,2,2,0,0,1,.37-.28h0a5.64,5.64,0,0,1,4.06-.29,8.68,8.68,0,0,1,3.38,1.88l1.31-1.9a14.78,14.78,0,0,0-2-1.33h0a9.64,9.64,0,0,0-6.06-.93c-2,.34-3.75,1.64-3.75,3.8h0a3,3,0,0,0,1.33,2.53h0a3,3,0,0,0,.46.26h0c1.81.91,3.87.76,5.81,1.07.82.13,1.88.37,2.27,1.19a2,2,0,0,1-.77,2.42h0a3.47,3.47,0,0,1-1.16.52h0a6.56,6.56,0,0,1-1.55.17h0a7.62,7.62,0,0,1-3.32-.73h0a7,7,0,0,1-1-.57h0a16.41,16.41,0,0,1-1.43-1l-1.3,2a12.27,12.27,0,0,0,2.73,1.71h0a11,11,0,0,0,4.34.84h0a7.23,7.23,0,0,0,4.31-1.2h0a4.13,4.13,0,0,0,1.23-1.43h0a4,4,0,0,0,.42-1.86h0A3.66,3.66,0,0,0,276.12,106.79Z"/><path class="cls-2" d="M257.86,111.69h-1.14v-4h5.08v-2.17h-5.08V102.4H263l2.1-2.17H254.46v13.63h10.67l-2.1-2.17Z"/><path class="cls-2" d="M333.32,100.42l-.09-.19h-1.74l-2.34,4.89c-1.1,2.27-2.19,4.55-3.29,6.83l-.92,1.91h2.44l1.68-3.49h6.61l1.73,3.49h2.47l-5.82-12Zm-.94,7.76h-2.26l2.25-4.62,2.26,4.62Z"/><path class="cls-2" d="M328.59,100.72l.23-.49h-2.5q-2.07,4.33-4.1,8.68l-.59,1.25-4.11-8.69c-.19-.41-.38-.83-.58-1.24h-2.47l2.07,4.36,3.51,7.43.87,1.84h1.42q1.08-2.3,2.18-4.59l3.23-6.8Z"/><path class="cls-2" d="M290.2,106.14a2.7,2.7,0,0,0,.28-.31h0a1.87,1.87,0,0,0,.2-.29h0a3.24,3.24,0,0,0,.42-1.73h0a3.4,3.4,0,0,0-1.08-2.68h0a3.43,3.43,0,0,0-1.32-.67h0a14,14,0,0,0-3.89-.22h-5.7v13.63h7.09a7,7,0,0,0,4.14-.8,4.37,4.37,0,0,0,.92-5.93A4.53,4.53,0,0,0,290.2,106.14Zm-8.84-3.74h5.74a2.35,2.35,0,0,1,1.07.2h0a.9.9,0,0,1,.26.17h0a.94.94,0,0,1,.25.34h0l0,.1h0a1.92,1.92,0,0,1,.11.67h0a1.65,1.65,0,0,1-.21.87h0c-.36.57-1.12.59-1.73.59h-5.52Zm8.17,8.12c0,.12,0,.07,0,0a1.92,1.92,0,0,1-2.07,1.16h-6.1v-4.18h5.25a5.71,5.71,0,0,1,1.94.14h0c1.11.41,1.32,1.86,1,2.87C289.56,110.46,289.58,110.39,289.53,110.52Z"/><path class="cls-2" d="M362.91,101.91h0a6.21,6.21,0,0,0-2.21-1.47h0a7.6,7.6,0,0,0-2.81-.49h0a6.88,6.88,0,0,0-5,2h0a6.42,6.42,0,0,0-1.26,1.87h0a8,8,0,0,0-.64,3.29h0a7.3,7.3,0,0,0,1.79,5,6.81,6.81,0,0,0,5.11,2.09h0a6.9,6.9,0,0,0,5-1.93,7.29,7.29,0,0,0,1.95-5.18h0a7.43,7.43,0,0,0-1.41-4.59C363.25,102.29,363.08,102.1,362.91,101.91Zm-.75,7.2a4.26,4.26,0,0,1-.94,1.56h0a4.5,4.5,0,0,1-3.34,1.33h0a4.78,4.78,0,0,1-2.58-.69h0a4.1,4.1,0,0,1-.4-.29h0l-.37-.35h0a4.75,4.75,0,0,1-.95-1.57h0a6,6,0,0,1,.34-4.79h0a4.17,4.17,0,0,1,2.06-1.83h0a4.92,4.92,0,0,1,1.88-.34h0a4.53,4.53,0,0,1,3.35,1.32h0A5.76,5.76,0,0,1,362.16,109.11Z"/><path class="cls-2" d="M363.41,102.5c.16.2-.15-.2,0,0Z"/><path class="cls-2" d="M303,108.86l-.45-.8a3.94,3.94,0,0,0,1.85-1.1,4.05,4.05,0,0,0,1-2.79h0a3.66,3.66,0,0,0-2.62-3.72,11.48,11.48,0,0,0-3.21-.22h-6.11v13.63h2.25v-5.67h4.39c.93,1.65,2.4,4.16,2.4,4.16l1.14-2.39Zm-.95-3A3.23,3.23,0,0,1,301,106H295.7v-3.6h5.16c.83,0,1.73.15,2.07,1a2.34,2.34,0,0,1,.13.79h0a1.71,1.71,0,0,1-.5,1.33A1.63,1.63,0,0,1,302.05,105.84Z"/><path class="cls-2" d="M315.89,109,312.44,102c-.28-.58-.55-1.15-.83-1.72h-1.74c-.82,1.72-1.65,3.43-2.47,5.15-.95,2-1.89,3.93-2.84,5.89-.41.87-.83,1.73-1.24,2.59h2.44l1.68-3.49H314c.58,1.17,1.15,2.33,1.73,3.49h2.46l-.23-.49Q316.94,111.21,315.89,109Zm-5.14-.86H308.5l2.24-4.62,2.27,4.62Z"/><path class="cls-2" d="M348,102.08a7.57,7.57,0,0,0-5.54-1.85h-5.36V104l2.26,4.58V102.4h3.53a4.82,4.82,0,0,1,3.45,1.22h0a4.53,4.53,0,0,1,1.24,3,5.42,5.42,0,0,1-.63,3.09c.06-.09.36-.6,0,0,0,0,0,0,0,0a3.3,3.3,0,0,1-.6.75h0a4.89,4.89,0,0,1-3.47,1.21h-2l1.07,2.19c.54,0,1.08,0,1.62,0a7.24,7.24,0,0,0,3.87-1.31c.19-.15.38-.32.56-.48h0a7.52,7.52,0,0,0,0-10Z"/><path class="cls-2" d="M251.1,102.08Z"/><path class="cls-2" d="M251.1,102.08a7.61,7.61,0,0,0-5.55-1.85H240.2v13.65H245v0l0,0c.54,0,1.08,0,1.62,0a7.24,7.24,0,0,0,3.87-1.31l.57-.48h0a6.79,6.79,0,0,0,1.89-5A6.87,6.87,0,0,0,251.1,102.08ZM250,109.72h0s0,0,0,0a3.55,3.55,0,0,1-.59.75h0a4.86,4.86,0,0,1-3.47,1.21h-3.53V102.4H246a4.82,4.82,0,0,1,3.45,1.22h0a4.53,4.53,0,0,1,1.24,3A5.42,5.42,0,0,1,250,109.72Z"/><path class="cls-2" d="M215.8,105.11a4,4,0,0,1,3.81-2.18c2.66,0,4.53,2.24,4.53,5.55,0,4-2.45,5.8-4.75,5.8a3.94,3.94,0,0,1-3.71-2.13h-.06l-.1,1.89h-1.09c0-.75.08-1.75.08-2.57V98h1.25v7.1Zm0,4.73a3.42,3.42,0,0,0,3.45,3.41c2.34,0,3.67-2,3.67-4.73,0-2.42-1.27-4.57-3.59-4.57a3.7,3.7,0,0,0-3.53,3.71Z"/><path class="cls-2" d="M234.71,103.19l-3.09,7.9c-1.5,3.91-2.74,7-5.59,7.92l-.38-1a6.75,6.75,0,0,0,3.71-4.28,1.53,1.53,0,0,0-.12-.46l-3.93-10h1.32l2.69,6.94c.28.76.56,1.64.76,2.32h0c.2-.66.48-1.5.78-2.36l2.49-6.9Z"/><path class="cls-1" d="M33.92,43.27a4.9,4.9,0,0,0-4.9-4.9H21.51a4.9,4.9,0,0,0-4.9,4.9v7.5a4.9,4.9,0,0,0,4.9,4.91H29a4.91,4.91,0,0,0,4.9-4.91Zm-6.13,6.28H22.74v-5h5.05Z"/><path class="cls-1" d="M83.54,43.27a4.9,4.9,0,0,0-4.91-4.9h-7.5a4.9,4.9,0,0,0-4.91,4.9v7.5a4.91,4.91,0,0,0,4.91,4.91h7.5a4.91,4.91,0,0,0,4.91-4.91Zm-6.13,6.28H72.35v-5h5.06Z"/><path class="cls-1" d="M29,62.31H21.51a4.9,4.9,0,0,0-4.9,4.91v7.5a4.9,4.9,0,0,0,4.9,4.91H29a4.91,4.91,0,0,0,4.9-4.91v-7.5A4.91,4.91,0,0,0,29,62.31ZM27.79,73.5H22.74V68.44h5.05Z"/><path class="cls-1" d="M53.82,62.31h-7.5a4.9,4.9,0,0,0-4.9,4.91v7.5a4.9,4.9,0,0,0,4.9,4.91h7.5a4.91,4.91,0,0,0,4.91-4.91v-7.5A4.91,4.91,0,0,0,53.82,62.31ZM52.6,73.5H47.55V68.44H52.6Z"/><path class="cls-1" d="M78.63,62.31h-7.5a4.91,4.91,0,0,0-4.91,4.91v7.5a4.91,4.91,0,0,0,4.91,4.91h7.5a4.91,4.91,0,0,0,4.91-4.91v-7.5A4.91,4.91,0,0,0,78.63,62.31ZM77.41,73.5H72.35V68.44h5.06Z"/><path class="cls-1" d="M17.73,31h65a3.69,3.69,0,1,0,0-7.37H17.73a3.69,3.69,0,1,0,0,7.37Z"/><polygon class="cls-1" points="53.8 41.15 50.21 33.86 46.61 41.15 38.57 42.31 44.39 47.98 43.02 55.99 50.21 52.21 57.4 55.99 56.02 47.98 61.84 42.31 53.8 41.15"/><path class="cls-1" d="M84.9,8.77H81.4v-4a3.68,3.68,0,0,0-3.68-3.68h0A3.67,3.67,0,0,0,74,4.76v4H23.35V4.82A3.79,3.79,0,0,0,19.78,1,3.68,3.68,0,0,0,16,4.67v7.77a3.68,3.68,0,0,0,3.68,3.68H84.9a6.61,6.61,0,0,1,6.61,6.61V80.38A6.61,6.61,0,0,1,84.9,87H15.25a6.61,6.61,0,0,1-6.62-6.61V19.81A3.67,3.67,0,0,0,5,16.13H5a3.67,3.67,0,0,0-3.68,3.68V80.38a14,14,0,0,0,14,14H84.9a14,14,0,0,0,14-14V22.74A14,14,0,0,0,84.9,8.77Z"/></svg>